<svg xmlns="http://www.w3.org/2000/svg" width="320" height="320" viewBox="0 0 320 320">
  <path id="Icon_awesome-donate" data-name="Icon awesome-donate" d="M160,260A130,130,0,1,0,30,130,129.98,129.98,0,0,0,160,260ZM146.125,60.875v-10.5A10.349,10.349,0,0,1,156.5,40h6.937a10.349,10.349,0,0,1,10.375,10.375V61a49.273,49.273,0,0,1,26.875,9.625,7.008,7.008,0,0,1,.75,10.688L191.25,91a7.047,7.047,0,0,1-8.75.625,20.57,20.57,0,0,0-11.125-3.187H147.063c-5.625,0-10.187,5.125-10.187,11.438,0,5.125,3.125,9.688,7.563,11l38.938,11.688c16.063,4.813,27.313,20.25,27.313,37.562,0,21.25-16.5,38.438-36.937,39v10.5A10.349,10.349,0,0,1,163.375,220h-6.937a10.349,10.349,0,0,1-10.375-10.375V199a49.273,49.273,0,0,1-26.875-9.625,7.008,7.008,0,0,1-.75-10.687L128.625,169a7.047,7.047,0,0,1,8.75-.625,20.57,20.57,0,0,0,11.125,3.187h24.313c5.625,0,10.188-5.125,10.188-11.437,0-5.125-3.125-9.687-7.562-11L136.5,137.438c-16.062-4.813-27.313-20.25-27.313-37.563.063-21.25,16.5-38.437,36.937-39ZM300,220H279.688a151.479,151.479,0,0,1-45.625,40h39.875c3.313,0,6,2.25,6,5v10c0,2.75-2.687,5-6,5H46c-3.313,0-6-2.25-6-5V265c0-2.75,2.688-5,6-5H85.875A152.23,152.23,0,0,1,40.25,220H20A19.979,19.979,0,0,0,0,240v60a19.979,19.979,0,0,0,20,20H300a19.979,19.979,0,0,0,20-20V240A19.979,19.979,0,0,0,300,220Z" fill="#a80a4e"/>
</svg>
