<svg id="Icon_ionic-ios-rocket" data-name="Icon ionic-ios-rocket" xmlns="http://www.w3.org/2000/svg" xmlns:xlink="http://www.w3.org/1999/xlink" width="280" height="279.765" viewBox="0 0 280 279.765">
  <defs>
    <linearGradient id="linear-gradient" x1="0.5" x2="0.5" y2="1" gradientUnits="objectBoundingBox">
      <stop offset="0" stop-color="#000443"/>
      <stop offset="1" stop-color="#001b44"/>
    </linearGradient>
  </defs>
  <path id="Path_1" data-name="Path 1" d="M281.892,7.168a2.971,2.971,0,0,0-2.221-2.288c-36.6-8.949-121.186,22.945-167.009,68.768A198.07,198.07,0,0,0,90.39,99.958c-14.131-1.278-28.261-.2-40.306,5.047C16.1,119.943,6.212,158.97,3.453,175.725a6.028,6.028,0,0,0,6.594,7l54.571-5.989a121.315,121.315,0,0,0,.74,12.314,12.213,12.213,0,0,0,3.566,7.469l21.128,21.128a12.213,12.213,0,0,0,7.469,3.566,121.084,121.084,0,0,0,12.246.74l-5.989,54.5a6.028,6.028,0,0,0,7,6.594c16.755-2.692,55.849-12.583,70.72-46.563,5.248-12.045,6.325-26.108,5.114-40.171a198.389,198.389,0,0,0,26.377-22.272C259.014,128.287,290.706,45.59,281.892,7.168ZM172.077,114.762a28.738,28.738,0,1,1,40.642,0A28.713,28.713,0,0,1,172.077,114.762Z" transform="translate(-3.366 -3.372)" fill="url(#linear-gradient)"/>
  <path id="Path_2" data-name="Path 2" d="M63.921,53.941h0c-2.648,2.648-7.377,4.161-12.484,5.044A16.972,16.972,0,0,1,31.891,39.439c.883-5.107,2.333-9.836,4.981-12.421l.063-.063a2.108,2.108,0,0,0-1.765-3.594,28.985,28.985,0,0,0-16.961,8.26C6.859,42.97,5.787,85.089,5.787,85.089s42.182-1.072,53.532-12.421a28.794,28.794,0,0,0,8.26-16.961A2.157,2.157,0,0,0,63.921,53.941Z" transform="translate(15.923 173.345)" fill="url(#linear-gradient)"/>
</svg>
