<svg xmlns="http://www.w3.org/2000/svg" width="280" height="178.182" viewBox="0 0 280 178.182">
  <path id="Icon_material-group" data-name="Icon material-group" d="M192.409,83.864a38.182,38.182,0,1,0-38.182-38.182A38.022,38.022,0,0,0,192.409,83.864Zm-101.818,0A38.182,38.182,0,1,0,52.409,45.682,38.022,38.022,0,0,0,90.591,83.864Zm0,25.455c-29.655,0-89.091,14.891-89.091,44.545v31.818H179.682V153.864C179.682,124.209,120.245,109.318,90.591,109.318Zm101.818,0c-3.691,0-7.891.255-12.345.636,14.764,10.691,25.073,25.073,25.073,43.909v31.818H281.5V153.864C281.5,124.209,222.064,109.318,192.409,109.318Z" transform="translate(-1.5 -7.5)" fill="#000443"/>
</svg>
