<svg xmlns="http://www.w3.org/2000/svg" width="311.301" height="311.301" viewBox="0 0 311.301 311.301">
  <g id="Icon_ionic-ios-checkmark-circle-outline" data-name="Icon ionic-ios-checkmark-circle-outline" transform="translate(-1.875 -1.875)">
    <path id="Path_4" data-name="Path 4" d="M169.18,26.51,156.136,13.1a2.8,2.8,0,0,0-2.075-.889h0a2.691,2.691,0,0,0-2.075.889L61.571,104.178,28.666,71.273a2.866,2.866,0,0,0-4.15,0L11.324,84.464a2.953,2.953,0,0,0,0,4.224l41.5,41.5c2.668,2.668,5.929,4.224,8.671,4.224,3.928,0,7.337-2.89,8.6-4.076h.074l99.086-99.6A3.168,3.168,0,0,0,169.18,26.51Z" transform="translate(67.348 84.252)" fill="#208004" stroke="#208004" stroke-width="3"/>
    <path id="Path_5" data-name="Path 5" d="M157.525,24.126a133.421,133.421,0,0,1,94.343,227.742A133.421,133.421,0,0,1,63.182,63.182a132.517,132.517,0,0,1,94.343-39.056m0-20.751a154.15,154.15,0,1,0,154.15,154.15A154.127,154.127,0,0,0,157.525,3.375Z" fill="#208004" stroke="#208004" stroke-width="3"/>
  </g>
</svg>
