<svg xmlns="http://www.w3.org/2000/svg" width="356.779" height="312.936" viewBox="0 0 356.779 312.936">
  <g id="Do" transform="translate(-0.5 0.256)">
    <path id="Path_6" data-name="Path 6" d="M338.643,328.718H23.215S13.2,311.842,6.253,277.919s26.154-21.541,34.618-50.782S12.41,204.062,15.489,164.05s53.852-40.775,78.471-35.39S115.5,115.583,144,84.807s71.551-27.7,93.092-3.842,14.612,48.467,41.555,48.467,51.571,5.411,67.684,56.956-13.374,75.1-12.839,98.376a254.867,254.867,0,0,0,5.156,43.955Z" transform="translate(-1.217 -17.361)" fill="#5a78c5"/>
    <path id="Path_7" data-name="Path 7" d="M338.643,328.718H23.215S13.2,311.842,6.253,277.919s26.154-21.541,34.618-50.782S12.41,204.062,15.489,164.05s53.852-40.775,78.471-35.39S115.5,115.583,144,84.807s71.551-27.7,93.092-3.842,14.612,48.467,41.555,48.467,51.571,5.411,67.684,56.956-13.374,75.1-12.839,98.376a254.867,254.867,0,0,0,5.156,43.955Z" transform="translate(-1.217 -17.361)" fill="#fff" opacity="0.7"/>
    <path id="Path_8" data-name="Path 8" d="M167.82,409.045c-7.725-11.763-40.707-61.222-50.358-62.544-9.4-1.29-42.827,48.721-51.867,62.544Z" transform="translate(-18.265 -97.688)" fill="#9f9f9f" stroke="#9f9f9f" stroke-linecap="round" stroke-linejoin="round" stroke-width="1"/>
    <path id="Path_9" data-name="Path 9" d="M267.088,30.785V144.841" transform="translate(-75.24 -8.422)" fill="none" stroke="#9f9f9f" stroke-linecap="round" stroke-linejoin="round" stroke-width="3"/>
    <path id="Path_10" data-name="Path 10" d="M285.983,35.053V146.048" transform="translate(-80.583 -9.629)" fill="none" stroke="#9f9f9f" stroke-linecap="round" stroke-linejoin="round" stroke-width="3"/>
    <path id="Path_11" data-name="Path 11" d="M306.7,119.737V227.246" transform="translate(-86.44 -33.574)" fill="none" stroke="#9f9f9f" stroke-linecap="round" stroke-linejoin="round" stroke-width="3"/>
    <path id="Path_12" data-name="Path 12" d="M328.632,35.053V203.3" transform="translate(-92.642 -9.629)" fill="none" stroke="#9f9f9f" stroke-linecap="round" stroke-linejoin="round" stroke-width="3"/>
    <path id="Path_13" data-name="Path 13" d="M350.565,35.053V149.109" transform="translate(-98.844 -9.629)" fill="none" stroke="#9f9f9f" stroke-linecap="round" stroke-linejoin="round" stroke-width="3"/>
    <path id="Path_14" data-name="Path 14" d="M250.641,52.1h72.11" transform="translate(-70.589 -14.45)" fill="none" stroke="#9f9f9f" stroke-linecap="round" stroke-linejoin="round" stroke-width="3"/>
    <path id="Path_15" data-name="Path 15" d="M250.641,87.445h78.2" transform="translate(-70.589 -24.444)" fill="none" stroke="#9f9f9f" stroke-linecap="round" stroke-linejoin="round" stroke-width="3"/>
    <path id="Path_16" data-name="Path 16" d="M248.82,119.737h86.96" transform="translate(-70.074 -33.574)" fill="none" stroke="#9f9f9f" stroke-linecap="round" stroke-linejoin="round" stroke-width="3"/>
    <path id="Path_17" data-name="Path 17" d="M246.987,155.694h88.275" transform="translate(-69.556 -43.742)" fill="none" stroke="#9f9f9f" stroke-linecap="round" stroke-linejoin="round" stroke-width="3"/>
    <path id="Path_18" data-name="Path 18" d="M270.138,194.677H337" transform="translate(-76.102 -54.765)" fill="none" stroke="#9f9f9f" stroke-linecap="round" stroke-linejoin="round" stroke-width="3"/>
    <path id="Path_19" data-name="Path 19" d="M294.508,232.455h43.7" transform="translate(-82.993 -65.447)" fill="none" stroke="#9f9f9f" stroke-linecap="round" stroke-linejoin="round" stroke-width="3"/>
    <path id="Path_20" data-name="Path 20" d="M134.1,45.884,149.529,57.96" transform="translate(-37.637 -12.692)" fill="none" stroke="#9f9f9f" stroke-linecap="round" stroke-linejoin="round" stroke-width="2"/>
    <path id="Path_21" data-name="Path 21" d="M177.119,28.124l5.368,8.048" transform="translate(-49.8 -7.67)" fill="none" stroke="#9f9f9f" stroke-linecap="round" stroke-linejoin="round" stroke-width="2"/>
    <path id="Path_22" data-name="Path 22" d="M215.464,1l4.7,14.756" transform="translate(-60.642)" fill="none" stroke="#9f9f9f" stroke-linecap="round" stroke-linejoin="round" stroke-width="2"/>
    <path id="Path_23" data-name="Path 23" d="M281.432,199.3H255.991V138.807H221.474V31.672a84.807,84.807,0,0,0-74.138,124.436c2.765,6.437,9.261,22.2,15.766,42.59,6.013,18.818,9.151,37.738,9.151,40.6v.848a6.344,6.344,0,0,0,6.335,6.563H266.15a6.351,6.351,0,0,0,6.335-6.563v-.848C272.468,236.47,275.547,217.915,281.432,199.3Z" transform="translate(-38.599 -8.673)" fill="#5a78c5" stroke="#9f9f9f" stroke-linecap="round" stroke-linejoin="round" stroke-width="2"/>
    <path id="Path_24" data-name="Path 24" d="M214.506,49.6a68.132,68.132,0,0,1,7.54-2.875" transform="translate(-60.372 -12.929)" fill="none" stroke="#9f9f9f" stroke-linecap="round" stroke-linejoin="round" stroke-width="2"/>
    <path id="Path_25" data-name="Path 25" d="M175.132,73.422s6.912-11.025,22.1-18.445" transform="translate(-49.238 -15.263)" fill="none" stroke="#9f9f9f" stroke-linecap="round" stroke-linejoin="round" stroke-width="2"/>
    <path id="Path_26" data-name="Path 26" d="M177.663,250.865c3.146,10.279,7.31,24.517,8.752,32.472,2.442,13.417.848,20.354,6.106,21.549" transform="translate(-49.954 -70.653)" fill="none" stroke="#9f9f9f" stroke-linecap="round" stroke-linejoin="round" stroke-width="2"/>
    <path id="Path_27" data-name="Path 27" d="M172.295,233.768s.848,2.756,2.213,6.979" transform="translate(-48.436 -65.818)" fill="none" stroke="#9f9f9f" stroke-linecap="round" stroke-linejoin="round" stroke-width="2"/>
    <path id="Path_28" data-name="Path 28" d="M242.3,290.013V208.939s3.392-21.2-7.633-21.2-10.177,11.025,2.544,22.9,32.227.848,34.771-8.481-4.24-13.569-8.481-5.937,0,94.134,0,94.134" transform="translate(-63.901 -52.802)" fill="none" stroke="#9f9f9f" stroke-linecap="round" stroke-linejoin="round" stroke-width="2"/>
    <path id="Path_29" data-name="Path 29" d="M283.874,330.8H192.36v21.235h91.514Z" transform="translate(-54.11 -93.254)" fill="#fff" stroke="#9f9f9f" stroke-linecap="round" stroke-linejoin="round" stroke-width="2"/>
    <path id="Path_30" data-name="Path 30" d="M283.874,367.45H192.36v21.235h91.514Z" transform="translate(-54.11 -103.618)" fill="#fff" stroke="#9f9f9f" stroke-linecap="round" stroke-linejoin="round" stroke-width="2"/>
    <path id="Path_31" data-name="Path 31" d="M283.874,360.4H192.36v5.054h91.514Z" transform="translate(-54.11 -101.626)" fill="#9f9f9f" stroke="#9f9f9f" stroke-linecap="round" stroke-linejoin="round" stroke-width="1"/>
    <path id="Path_32" data-name="Path 32" d="M283.874,404.1H192.36V425.34h91.514Z" transform="translate(-54.11 -113.983)" fill="#fff" stroke="#9f9f9f" stroke-linecap="round" stroke-linejoin="round" stroke-width="2"/>
    <path id="Path_33" data-name="Path 33" d="M306.6,356.442h6.8" transform="translate(-86.413 -100.506)" fill="none" stroke="#9f9f9f" stroke-linecap="round" stroke-linejoin="round" stroke-width="1"/>
    <path id="Path_34" data-name="Path 34" d="M197.373,356.442h75.071" transform="translate(-55.527 -100.506)" fill="none" stroke="#9f9f9f" stroke-linecap="round" stroke-linejoin="round" stroke-width="1"/>
    <path id="Path_35" data-name="Path 35" d="M282.01,393.676h21.922" transform="translate(-79.459 -111.034)" fill="none" stroke="#9f9f9f" stroke-linecap="round" stroke-linejoin="round" stroke-width="1"/>
    <path id="Path_36" data-name="Path 36" d="M216.315,393.676h44.6" transform="translate(-60.883 -111.034)" fill="none" stroke="#9f9f9f" stroke-linecap="round" stroke-linejoin="round" stroke-width="1"/>
    <path id="Path_37" data-name="Path 37" d="M206.135,393.676h3.774" transform="translate(-58.005 -111.034)" fill="none" stroke="#9f9f9f" stroke-linecap="round" stroke-linejoin="round" stroke-width="1"/>
    <path id="Path_38" data-name="Path 38" d="M283.874,397.057H192.36v5.054h91.514Z" transform="translate(-54.11 -111.99)" fill="#9f9f9f" stroke="#9f9f9f" stroke-linecap="round" stroke-linejoin="round" stroke-width="1"/>
    <path id="Path_39" data-name="Path 39" d="M240.3,410.6H208.973V426.9H240.3Z" transform="translate(-58.807 -115.819)" fill="#5a78c5" stroke="#9f9f9f" stroke-linecap="round" stroke-linejoin="round" stroke-width="1"/>
    <path id="Path_40" data-name="Path 40" d="M297.138,410.6H265.811V426.9h31.327Z" transform="translate(-74.879 -115.819)" fill="#5a78c5" stroke="#9f9f9f" stroke-linecap="round" stroke-linejoin="round" stroke-width="1"/>
    <path id="Path_41" data-name="Path 41" d="M317.482,422.674c-6-5.267-31.642-27.409-39.1-27.986-7.31-.585-33.26,21.812-40.283,27.986Z" transform="translate(-67.042 -111.317)" fill="#9f9f9f" stroke="#9f9f9f" stroke-linecap="round" stroke-linejoin="round" stroke-width="1"/>
    <path id="Path_42" data-name="Path 42" d="M486.778,433.712h7.361" transform="translate(-137.36 -122.355)" fill="none" stroke="#9f9f9f" stroke-linecap="round" stroke-linejoin="round" stroke-width="1"/>
    <path id="Path_43" data-name="Path 43" d="M16.962,433.712H346.571" transform="translate(-4.514 -122.355)" fill="none" stroke="#9f9f9f" stroke-linecap="round" stroke-linejoin="round" stroke-width="1"/>
    <path id="Path_44" data-name="Path 44" d="M1,433.712H6.724" transform="translate(0 -122.355)" fill="none" stroke="#9f9f9f" stroke-linecap="round" stroke-linejoin="round" stroke-width="1"/>
    <path id="Path_45" data-name="Path 45" d="M457.445,366.232H435.438V397.1H466.57V381.667Z" transform="translate(-122.843 -103.274)" fill="#9f9f9f" stroke="#9f9f9f" stroke-linecap="round" stroke-linejoin="round" stroke-width="1"/>
    <path id="Path_46" data-name="Path 46" d="M474.869,409.272H464.785v7.013h10.084Z" transform="translate(-131.141 -115.444)" fill="#fff" stroke="#9f9f9f" stroke-linecap="round" stroke-linejoin="round" stroke-width="1"/>
    <path id="Path_47" data-name="Path 47" d="M391.9,390.231s11.025-5.937,7.208-35.619l-13.993-7.633-24.169-3.816-21.625.849v12.3s12.3,10.6,13.569,13.993a23.5,23.5,0,0,1,1.272,7.209v11.872Z" transform="translate(-95.665 -96.751)" fill="#5a78c5" stroke="#9f9f9f" stroke-linecap="round" stroke-linejoin="round" stroke-width="1"/>
    <path id="Path_48" data-name="Path 48" d="M419.838,359.126l-7.208,35.619" transform="translate(-116.394 -101.265)" fill="none" stroke="#9f9f9f" stroke-linecap="round" stroke-linejoin="round" stroke-width="1"/>
    <path id="Path_49" data-name="Path 49" d="M399.994,348.484l-8.056,43.252" transform="translate(-110.543 -98.256)" fill="none" stroke="#9f9f9f" stroke-linecap="round" stroke-linejoin="round" stroke-width="1"/>
    <path id="Path_50" data-name="Path 50" d="M367.132,343.163,361.2,375.39" transform="translate(-101.85 -96.751)" fill="none" stroke="#9f9f9f" stroke-linecap="round" stroke-linejoin="round" stroke-width="1"/>
    <path id="Path_51" data-name="Path 51" d="M340.5,359.126s13.993,5.937,19.505,9.753,4.665,11.872,4.665,11.872" transform="translate(-95.999 -101.265)" fill="none" stroke="#9f9f9f" stroke-linecap="round" stroke-linejoin="round" stroke-width="1"/>
    <path id="Path_52" data-name="Path 52" d="M409.789,409.579H344.038v5.513h65.751Z" transform="translate(-96.998 -115.531)" fill="#fff" stroke="#9f9f9f" stroke-linecap="round" stroke-linejoin="round" stroke-width="1"/>
    <path id="Path_53" data-name="Path 53" d="M454.014,384.853h13.73l-7.37-12.721h-6.36Z" transform="translate(-128.096 -104.942)" fill="#fff" stroke="#9f9f9f" stroke-linecap="round" stroke-linejoin="round" stroke-width="1"/>
    <path id="Path_54" data-name="Path 54" d="M448.718,372.132h-5.937v12.721h5.937Z" transform="translate(-124.919 -104.942)" fill="#fff" stroke="#9f9f9f" stroke-linecap="round" stroke-linejoin="round" stroke-width="1"/>
    <path id="Path_55" data-name="Path 55" d="M384.552,409.272H344.523v9.557h40.029Z" transform="translate(-97.136 -115.444)" fill="#fff" stroke="#9f9f9f" stroke-linecap="round" stroke-linejoin="round" stroke-width="1"/>
    <path id="Path_56" data-name="Path 56" d="M449.291,426.908a8.421,8.421,0,1,0-9.784-6.79A8.421,8.421,0,0,0,449.291,426.908Z" transform="translate(-123.955 -115.706)" fill="#9f9f9f" stroke="#9f9f9f" stroke-linecap="round" stroke-linejoin="round" stroke-width="1"/>
    <path id="Path_57" data-name="Path 57" d="M449.157,424.956a4.91,4.91,0,1,0-4.91-4.91A4.91,4.91,0,0,0,449.157,424.956Z" transform="translate(-125.334 -117.102)" fill="#fff" stroke="#9f9f9f" stroke-linecap="round" stroke-linejoin="round" stroke-width="1"/>
    <path id="Path_58" data-name="Path 58" d="M358.811,426.931a8.421,8.421,0,1,0-9.76-6.825A8.422,8.422,0,0,0,358.811,426.931Z" transform="translate(-98.379 -115.711)" fill="#9f9f9f" stroke="#9f9f9f" stroke-linecap="round" stroke-linejoin="round" stroke-width="1"/>
    <path id="Path_59" data-name="Path 59" d="M358.7,424.956a4.91,4.91,0,1,0-4.91-4.91A4.911,4.911,0,0,0,358.7,424.956Z" transform="translate(-99.757 -117.102)" fill="#fff" stroke="#9f9f9f" stroke-linecap="round" stroke-linejoin="round" stroke-width="1"/>
    <path id="Path_60" data-name="Path 60" d="M391.363,424.815a8.421,8.421,0,1,0-11.9-.507A8.421,8.421,0,0,0,391.363,424.815Z" transform="translate(-106.388 -115.704)" fill="#9f9f9f" stroke="#9f9f9f" stroke-linecap="round" stroke-linejoin="round" stroke-width="1"/>
    <path id="Path_61" data-name="Path 61" d="M387.046,424.956a4.91,4.91,0,1,0-4.911-4.91A4.91,4.91,0,0,0,387.046,424.956Z" transform="translate(-107.771 -117.102)" fill="#fff" stroke="#9f9f9f" stroke-linecap="round" stroke-linejoin="round" stroke-width="1"/>
    <path id="Path_62" data-name="Path 62" d="M375.694,388.686h-21.2a2.756,2.756,0,0,0-2.756,2.756v8.9a2.756,2.756,0,0,0,2.756,2.756h21.2a2.757,2.757,0,0,0,2.756-2.756v-8.9A2.756,2.756,0,0,0,375.694,388.686Z" transform="translate(-99.175 -109.623)" fill="#9f9f9f" stroke="#9f9f9f" stroke-linecap="round" stroke-linejoin="round" stroke-width="1"/>
    <path id="Path_63" data-name="Path 63" d="M336.956,392.254V350.317h8.481v41.937" transform="translate(-94.996 -98.774)" fill="none" stroke="#9f9f9f" stroke-linecap="round" stroke-linejoin="round" stroke-width="1"/>
    <path id="Path_64" data-name="Path 64" d="M337.039,358.062h8.328" transform="translate(-95.019 -100.964)" fill="none" stroke="#9f9f9f" stroke-linecap="round" stroke-linejoin="round" stroke-width="1"/>
    <path id="Path_65" data-name="Path 65" d="M337.039,367.19h8.328" transform="translate(-95.019 -103.545)" fill="none" stroke="#9f9f9f" stroke-linecap="round" stroke-linejoin="round" stroke-width="1"/>
    <path id="Path_66" data-name="Path 66" d="M337.039,376.318h8.328" transform="translate(-95.019 -106.126)" fill="none" stroke="#9f9f9f" stroke-linecap="round" stroke-linejoin="round" stroke-width="1"/>
    <path id="Path_67" data-name="Path 67" d="M337.039,385.458h8.328" transform="translate(-95.019 -108.71)" fill="none" stroke="#9f9f9f" stroke-linecap="round" stroke-linejoin="round" stroke-width="1"/>
    <path id="Path_68" data-name="Path 68" d="M337.039,394.586h8.328" transform="translate(-95.019 -111.292)" fill="none" stroke="#9f9f9f" stroke-linecap="round" stroke-linejoin="round" stroke-width="1"/>
    <path id="Path_69" data-name="Path 69" d="M337.039,403.714h8.328" transform="translate(-95.019 -113.873)" fill="none" stroke="#9f9f9f" stroke-linecap="round" stroke-linejoin="round" stroke-width="1"/>
    <path id="Path_70" data-name="Path 70" d="M94.446,329.876H79.181V63.585l15.265,17.75Z" transform="translate(-22.107 -17.697)" fill="none" stroke="#9f9f9f" stroke-linecap="round" stroke-linejoin="round" stroke-width="1"/>
    <path id="Path_71" data-name="Path 71" d="M79.393,351.113H94.362L79.393,336.637H94.362Z" transform="translate(-22.167 -94.906)" fill="none" stroke="#9f9f9f" stroke-linecap="round" stroke-linejoin="round" stroke-width="1"/>
    <path id="Path_72" data-name="Path 72" d="M79.393,330.421H94.362L79.393,315.945H94.362Z" transform="translate(-22.167 -89.055)" fill="none" stroke="#9f9f9f" stroke-linecap="round" stroke-linejoin="round" stroke-width="1"/>
    <path id="Path_73" data-name="Path 73" d="M79.393,309.729H94.362L79.393,295.253H94.362Z" transform="translate(-22.167 -83.204)" fill="none" stroke="#9f9f9f" stroke-linecap="round" stroke-linejoin="round" stroke-width="1"/>
    <path id="Path_74" data-name="Path 74" d="M79.393,289.037H94.362L79.393,274.561H94.362Z" transform="translate(-22.167 -77.353)" fill="none" stroke="#9f9f9f" stroke-linecap="round" stroke-linejoin="round" stroke-width="1"/>
    <path id="Path_75" data-name="Path 75" d="M79.393,268.345H94.362L79.393,253.868H94.362Z" transform="translate(-22.167 -71.502)" fill="none" stroke="#9f9f9f" stroke-linecap="round" stroke-linejoin="round" stroke-width="1"/>
    <path id="Path_76" data-name="Path 76" d="M79.393,247.653H94.362L79.393,233.176H94.362Z" transform="translate(-22.167 -65.651)" fill="none" stroke="#9f9f9f" stroke-linecap="round" stroke-linejoin="round" stroke-width="1"/>
    <path id="Path_77" data-name="Path 77" d="M79.393,226.961H94.362L79.393,212.484H94.362Z" transform="translate(-22.167 -59.8)" fill="none" stroke="#9f9f9f" stroke-linecap="round" stroke-linejoin="round" stroke-width="1"/>
    <path id="Path_78" data-name="Path 78" d="M79.393,206.269H94.362L79.393,191.792H94.362Z" transform="translate(-22.167 -53.949)" fill="none" stroke="#9f9f9f" stroke-linecap="round" stroke-linejoin="round" stroke-width="1"/>
    <path id="Path_79" data-name="Path 79" d="M79.393,185.577H94.362L79.393,171.1H94.362Z" transform="translate(-22.167 -48.098)" fill="none" stroke="#9f9f9f" stroke-linecap="round" stroke-linejoin="round" stroke-width="1"/>
    <path id="Path_80" data-name="Path 80" d="M79.393,164.885H94.362L79.393,150.408H94.362Z" transform="translate(-22.167 -42.247)" fill="none" stroke="#9f9f9f" stroke-linecap="round" stroke-linejoin="round" stroke-width="1"/>
    <path id="Path_81" data-name="Path 81" d="M79.393,144.193H94.362L79.393,129.716H94.362Z" transform="translate(-22.167 -36.396)" fill="none" stroke="#9f9f9f" stroke-linecap="round" stroke-linejoin="round" stroke-width="1"/>
    <path id="Path_82" data-name="Path 82" d="M79.393,123.5H94.362L79.393,109.024H94.362Z" transform="translate(-22.167 -30.545)" fill="none" stroke="#9f9f9f" stroke-linecap="round" stroke-linejoin="round" stroke-width="1"/>
    <path id="Path_83" data-name="Path 83" d="M79.393,102.809H94.362L79.393,88.332H94.362Z" transform="translate(-22.167 -24.694)" fill="none" stroke="#9f9f9f" stroke-linecap="round" stroke-linejoin="round" stroke-width="1"/>
    <path id="Path_84" data-name="Path 84" d="M173.015,107.236l-7.395-4.656H112.845l-6.446,4.656Z" transform="translate(-29.803 -28.723)" fill="none" stroke="#9f9f9f" stroke-linecap="round" stroke-linejoin="round" stroke-width="1"/>
    <path id="Path_85" data-name="Path 85" d="M150.16,108.516H21.255v3.392H150.16Z" transform="translate(-5.727 -30.402)" fill="#9f9f9f" stroke="#9f9f9f" stroke-linecap="round" stroke-linejoin="round" stroke-width="1"/>
    <path id="Path_86" data-name="Path 86" d="M157.923,91.554,79.181,63.585l25.968,27.969" transform="translate(-22.107 -17.697)" fill="none" stroke="#9f9f9f" stroke-linecap="round" stroke-linejoin="round" stroke-width="1"/>
    <path id="Path_87" data-name="Path 87" d="M62.81,63.585,21.255,95.811" transform="translate(-5.727 -17.697)" fill="none" stroke="#9f9f9f" stroke-linecap="round" stroke-linejoin="round" stroke-width="1"/>
    <path id="Path_88" data-name="Path 88" d="M103.309,118.566h-31.8V138.92h31.8Z" transform="translate(-19.937 -33.243)" fill="#9f9f9f" stroke="#9f9f9f" stroke-linecap="round" stroke-linejoin="round" stroke-width="1"/>
    <path id="Path_89" data-name="Path 89" d="M99.288,124.478H80.741v5.937H99.288Z" transform="translate(-22.548 -34.915)" fill="#fff" stroke="#9f9f9f" stroke-linecap="round" stroke-linejoin="round" stroke-width="1"/>
    <path id="Path_90" data-name="Path 90" d="M200.98,113.245v36.569" transform="translate(-56.547 -31.739)" fill="none" stroke="#9f9f9f" stroke-linecap="round" stroke-linejoin="round" stroke-width="1"/>
    <path id="Path_91" data-name="Path 91" d="M204,181.647h-9.422v10.678H204Z" transform="translate(-54.738 -51.08)" fill="#9f9f9f" stroke="#9f9f9f" stroke-linecap="round" stroke-linejoin="round" stroke-width="1"/>
    <path id="Path_92" data-name="Path 92" d="M194.583,176.448l4.715-13.187,4.715,13.187" transform="translate(-54.738 -45.881)" fill="none" stroke="#9f9f9f" stroke-linecap="round" stroke-linejoin="round" stroke-width="1"/>
    <path id="Path_93" data-name="Path 93" d="M165.3,358.933l20.354,32.175,5.088-3.723-14.977-29.953a8.1,8.1,0,0,0-7.251-4.478h0a3.893,3.893,0,0,0-3.214,5.979Z" transform="translate(-46.288 -99.52)" fill="#5a78c5" stroke="#9f9f9f" stroke-linecap="round" stroke-linejoin="round" stroke-width="1"/>
    <path id="Path_94" data-name="Path 94" d="M190.265,395.118,169.327,410.01s1.866,7.9,13.959,7.438,11.636-13.026,11.636-13.026Z" transform="translate(-47.597 -111.442)" fill="#9f9f9f" stroke="#fff" stroke-linecap="round" stroke-linejoin="round" stroke-width="1"/>
    <path id="Path_95" data-name="Path 95" d="M117.431,374.552l37.925-17.088a6,6,0,0,1,7.294,1.908h0a6,6,0,0,1-1.391,8.481l-41.5,29.046Z" transform="translate(-32.922 -100.645)" fill="#5a78c5" stroke="#9f9f9f" stroke-linecap="round" stroke-linejoin="round" stroke-width="1"/>
    <path id="Path_96" data-name="Path 96" d="M94.241,410.69H55.154v6.047H94.241Z" transform="translate(-15.313 -115.845)" fill="#fff" stroke="#9f9f9f" stroke-linecap="round" stroke-linejoin="round" stroke-width="1"/>
    <path id="Path_97" data-name="Path 97" d="M69.657,386.688H35.692v13.959H69.657Z" transform="translate(-9.81 -109.058)" fill="#9f9f9f" stroke="#9f9f9f" stroke-linecap="round" stroke-linejoin="round" stroke-width="1"/>
    <path id="Path_98" data-name="Path 98" d="M75.88,364.624h28.834a2.543,2.543,0,0,1,2.544,2.544v27.223H73.328V367.168a2.545,2.545,0,0,1,2.553-2.544Z" transform="translate(-20.452 -102.819)" fill="#5a78c5" stroke="#9f9f9f" stroke-linecap="round" stroke-linejoin="round" stroke-width="1"/>
    <path id="Path_99" data-name="Path 99" d="M32.6,428.486H88.2a6.628,6.628,0,0,0,0-13.255H32.6a6.631,6.631,0,0,0-6.623,6.632h0a6.624,6.624,0,0,0,6.623,6.624Z" transform="translate(-7.061 -117.129)" fill="#9f9f9f" stroke="#9f9f9f" stroke-linecap="round" stroke-linejoin="round" stroke-width="1"/>
    <path id="Path_100" data-name="Path 100" d="M44.275,428.486h55.6a6.628,6.628,0,1,0,0-13.255h-55.6a6.628,6.628,0,1,0,0,13.255Z" transform="translate(-10.361 -117.129)" fill="#fff" stroke="#9f9f9f" stroke-linecap="round" stroke-linejoin="round" stroke-width="1"/>
    <path id="Path_101" data-name="Path 101" d="M96.642,406.15H35.692v4.656h60.95Z" transform="translate(-9.81 -114.561)" fill="#fff" stroke="#9f9f9f" stroke-linecap="round" stroke-linejoin="round" stroke-width="1"/>
    <path id="Path_102" data-name="Path 102" d="M49.912,422.825a4.19,4.19,0,1,1-1.227-2.962,4.187,4.187,0,0,1,1.227,2.962Z" transform="translate(-11.461 -118.092)" fill="#9f9f9f" stroke="#9f9f9f" stroke-linecap="round" stroke-linejoin="round" stroke-width="1"/>
    <path id="Path_103" data-name="Path 103" d="M61.294,427.015a4.189,4.189,0,1,0-4.189-4.189A4.189,4.189,0,0,0,61.294,427.015Z" transform="translate(-15.864 -118.092)" fill="#9f9f9f" stroke="#9f9f9f" stroke-linecap="round" stroke-linejoin="round" stroke-width="1"/>
    <path id="Path_104" data-name="Path 104" d="M76.855,427.015a4.189,4.189,0,1,0-4.189-4.189A4.189,4.189,0,0,0,76.855,427.015Z" transform="translate(-20.264 -118.092)" fill="#9f9f9f" stroke="#9f9f9f" stroke-linecap="round" stroke-linejoin="round" stroke-width="1"/>
    <path id="Path_105" data-name="Path 105" d="M96.617,422.825a4.19,4.19,0,1,1-1.227-2.962,4.187,4.187,0,0,1,1.227,2.962Z" transform="translate(-24.668 -118.092)" fill="#9f9f9f" stroke="#9f9f9f" stroke-linecap="round" stroke-linejoin="round" stroke-width="1"/>
    <path id="Path_106" data-name="Path 106" d="M112.189,422.825a4.19,4.19,0,1,1-1.227-2.962,4.191,4.191,0,0,1,1.227,2.962Z" transform="translate(-29.071 -118.092)" fill="#9f9f9f" stroke="#9f9f9f" stroke-linecap="round" stroke-linejoin="round" stroke-width="1"/>
    <path id="Path_107" data-name="Path 107" d="M127.749,422.825a4.178,4.178,0,1,1-.316-1.6,4.187,4.187,0,0,1,.316,1.6Z" transform="translate(-33.471 -118.092)" fill="#9f9f9f" stroke="#9f9f9f" stroke-linecap="round" stroke-linejoin="round" stroke-width="1"/>
    <path id="Path_108" data-name="Path 108" d="M174.63,363.7a2.329,2.329,0,1,0-.175.892A2.331,2.331,0,0,0,174.63,363.7Z" transform="translate(-47.777 -101.9)" fill="#9f9f9f" stroke="#9f9f9f" stroke-linecap="round" stroke-linejoin="round" stroke-width="1"/>
    <path id="Path_109" data-name="Path 109" d="M103.818,369.815H79.157v14.892h24.662Z" transform="translate(-22.1 -104.287)" fill="#fff" stroke="#9f9f9f" stroke-linecap="round" stroke-linejoin="round" stroke-width="1"/>
    <path id="Path_110" data-name="Path 110" d="M108.222,369.815H94.729v14.892h13.493Z" transform="translate(-26.503 -104.287)" fill="#fff" stroke="#9f9f9f" stroke-linecap="round" stroke-linejoin="round" stroke-width="1"/>
  </g>
</svg>
